<svg width="87" height="75" viewBox="0 0 87 75" fill="none" xmlns="http://www.w3.org/2000/svg">
<path d="M75.4692 0.5C81.3024 0.5 86.1978 5.20445 86.1978 11.2285C86.1977 14.0604 85.0631 16.5089 83.3774 18.3818L83.3745 18.3848C81.3095 20.6375 78.4861 21.9569 75.2905 21.957C72.1089 21.957 69.0899 20.6472 67.1899 18.3672V18.3662C65.5116 16.4951 64.3824 14.0529 64.3823 11.2285C64.3823 5.37854 69.2829 0.500167 75.4692 0.5Z" fill="#FFB95C" stroke="black" stroke-miterlimit="10" stroke-linecap="round" stroke-linejoin="round"/>
<path d="M75.2905 4.80688C77.3503 4.80714 79.02 6.47749 79.02 8.53735C79.0198 10.597 77.3502 12.2666 75.2905 12.2668C73.2307 12.2668 71.5603 10.5972 71.5601 8.53735C71.5601 6.47733 73.2305 4.80688 75.2905 4.80688Z" fill="white" stroke="black" stroke-miterlimit="10" stroke-linecap="round" stroke-linejoin="round"/>
<path d="M75.29 11.2668C79.4994 11.2668 82.7373 14.3301 83.4971 18.1292C83.5282 18.2854 83.4827 18.4472 83.375 18.5647C81.3099 20.8176 78.4858 22.136 75.29 22.136C72.1086 22.1359 69.0904 20.8269 67.1904 18.5471C67.0999 18.4385 67.0592 18.2965 67.0791 18.1565C67.6548 14.1263 71.1097 11.267 75.29 11.2668Z" fill="white" stroke="black" stroke-miterlimit="10" stroke-linecap="round" stroke-linejoin="round"/>
<path d="M11.2285 0.5C17.415 0.500092 22.3154 5.37849 22.3154 11.2285C22.3154 14.0532 21.1855 16.4951 19.5068 18.3662L19.5078 18.3672C17.6079 20.6471 14.5897 21.9569 11.4082 21.957C8.21244 21.957 5.38837 20.6376 3.32324 18.3848L3.32031 18.3818C1.63464 16.5089 0.500047 14.0604 0.5 11.2285C0.5 5.20445 5.39532 0.5 11.2285 0.5Z" fill="#FA4968" stroke="black" stroke-miterlimit="10" stroke-linecap="round" stroke-linejoin="round"/>
<path d="M11.4087 4.80688C13.4685 4.80714 15.1382 6.47749 15.1382 8.53735C15.1379 10.597 13.4683 12.2666 11.4087 12.2668C9.34882 12.2668 7.67847 10.5972 7.67822 8.53735C7.67822 6.47733 9.34867 4.80688 11.4087 4.80688Z" fill="white" stroke="black" stroke-miterlimit="10" stroke-linecap="round" stroke-linejoin="round"/>
<path d="M11.4077 11.2668C15.5882 11.2668 19.0429 14.1262 19.6187 18.1565C19.6386 18.2965 19.5988 18.4385 19.5083 18.5471C17.6083 20.8271 14.5893 22.136 11.4077 22.136C8.21216 22.1359 5.38878 20.8174 3.32373 18.5647C3.21603 18.4472 3.17051 18.2854 3.20166 18.1292C3.96146 14.3302 7.19852 11.267 11.4077 11.2668Z" fill="white" stroke="black" stroke-miterlimit="10" stroke-linecap="round" stroke-linejoin="round"/>
<path d="M75.4849 52.8977L75.4839 52.8987C81.3108 52.9064 86.1978 57.6071 86.1978 63.6262C86.1977 66.4581 85.0631 68.9065 83.3774 70.7795L83.3745 70.7825C81.3095 73.0352 78.4861 74.3546 75.2905 74.3547C72.1089 74.3547 69.0899 73.0449 67.1899 70.7649V70.7639C65.5116 68.8928 64.3823 66.4507 64.3823 63.6262C64.3823 57.605 69.2781 52.7096 75.4849 52.8977Z" fill="#6CD8D5" stroke="black" stroke-miterlimit="10" stroke-linecap="round" stroke-linejoin="round"/>
<path d="M75.2905 57.0254C77.3503 57.0256 79.02 58.696 79.02 60.7559C79.0198 62.8155 77.3502 64.4851 75.2905 64.4854C73.2307 64.4854 71.5603 62.8157 71.5601 60.7559C71.5601 58.6958 73.2305 57.0254 75.2905 57.0254Z" fill="white" stroke="black" stroke-miterlimit="10" stroke-linecap="round" stroke-linejoin="round"/>
<path d="M75.29 63.4854C79.4994 63.4854 82.7373 66.5486 83.4971 70.3477C83.5282 70.5039 83.4827 70.6657 83.375 70.7832C81.3099 73.0361 78.4858 74.3545 75.29 74.3545C72.1086 74.3544 69.0904 73.0454 67.1904 70.7656C67.0991 70.656 67.0589 70.5122 67.0801 70.3711C67.6558 66.5332 71.0994 63.4855 75.29 63.4854Z" fill="white" stroke="black" stroke-miterlimit="10" stroke-linecap="round" stroke-linejoin="round"/>
<path d="M11.2129 52.8987C17.4196 52.7106 22.3154 57.605 22.3154 63.6262C22.3154 66.4509 21.1855 68.8928 19.5068 70.7639L19.5078 70.7649C17.6079 73.0448 14.5897 74.3546 11.4082 74.3547C8.21244 74.3547 5.38837 73.0353 3.32324 70.7825L3.32031 70.7795C1.63461 68.9065 0.500015 66.4581 0.5 63.6262C0.5 57.6075 5.38651 52.907 11.2129 52.8987Z" fill="#559AFF" stroke="black" stroke-miterlimit="10" stroke-linecap="round" stroke-linejoin="round"/>
<path d="M11.4087 57.0254C13.4685 57.0256 15.1382 58.696 15.1382 60.7559C15.1379 62.8155 13.4683 64.4851 11.4087 64.4854C9.34882 64.4854 7.67848 62.8157 7.67822 60.7559C7.67822 58.6958 9.34867 57.0254 11.4087 57.0254Z" fill="white" stroke="black" stroke-miterlimit="10" stroke-linecap="round" stroke-linejoin="round"/>
<path d="M11.4077 63.4854C15.5985 63.4854 19.0429 66.5331 19.6187 70.3711C19.6398 70.5122 19.5997 70.656 19.5083 70.7656C17.6083 73.0456 14.5893 74.3545 11.4077 74.3545C8.21216 74.3544 5.38878 73.0359 3.32373 70.7832C3.21603 70.6657 3.17051 70.504 3.20166 70.3477C3.96146 66.5487 7.19852 63.4855 11.4077 63.4854Z" fill="white" stroke="black" stroke-miterlimit="10" stroke-linecap="round" stroke-linejoin="round"/>
<path d="M41.5552 33.8767C43.8049 33.8769 45.4642 35.5361 45.4644 37.7859V45.8611C45.4644 47.9143 43.822 49.7701 41.5552 49.7703H28.7944L22.8218 53.9861C22.6692 54.0936 22.469 54.1071 22.3032 54.0212C22.1376 53.9352 22.0337 53.7636 22.0337 53.5769V37.7859C22.0338 35.7328 23.6761 33.8769 25.9429 33.8767H41.5552Z" fill="#559AFF" stroke="black" stroke-miterlimit="10" stroke-linecap="round" stroke-linejoin="round"/>
<path d="M34.377 43.2083L34.4775 43.218C34.7054 43.2647 34.877 43.4666 34.877 43.7083C34.8767 43.9497 34.7052 44.1509 34.4775 44.1975L34.377 44.2083H28.4551C28.1791 44.2083 27.9553 43.9842 27.9551 43.7083C27.9551 43.4321 28.1789 43.2083 28.4551 43.2083H34.377ZM39.042 39.26C39.3181 39.26 39.542 39.4839 39.542 39.76C39.542 40.0362 39.3181 40.26 39.042 40.26H28.4551C28.1789 40.26 27.9551 40.0362 27.9551 39.76C27.9551 39.4839 28.1789 39.26 28.4551 39.26H39.042Z" fill="black" stroke="white" stroke-miterlimit="10" stroke-linecap="round" stroke-linejoin="round"/>
<path d="M38.4043 45.5913C39.1138 44.9081 40.1003 44.5503 41.2129 44.644H56.9863C59.2533 44.644 60.8965 46.4999 60.8965 48.5532V64.3442C60.8964 64.5315 60.7914 64.7029 60.625 64.7886C60.4585 64.8742 60.2579 64.8602 60.1055 64.7515L53.9551 60.3579H41.1953C38.9285 60.3578 37.2862 58.5019 37.2861 56.4487V48.3735C37.2861 47.2641 37.6916 46.2776 38.4043 45.5913Z" fill="#6CD8D5" stroke="black" stroke-miterlimit="10" stroke-linecap="round" stroke-linejoin="round"/>
<path d="M54.2944 53.7959L54.396 53.8057C54.6236 53.8525 54.7944 54.0544 54.7944 54.2959C54.7942 54.5371 54.6235 54.7384 54.396 54.7852L54.2944 54.7959H48.3735C48.0975 54.7959 47.8738 54.5718 47.8735 54.2959C47.8735 54.0198 48.0974 53.7959 48.3735 53.7959H54.2944ZM54.2944 49.8477C54.5706 49.8477 54.7944 50.0715 54.7944 50.3477C54.7944 50.6238 54.5706 50.8477 54.2944 50.8477H43.7075C43.4314 50.8477 43.2075 50.6238 43.2075 50.3477C43.2075 50.0715 43.4314 49.8477 43.7075 49.8477H54.2944Z" fill="black" stroke="white" stroke-miterlimit="10" stroke-linecap="round" stroke-linejoin="round"/>
<path d="M64.5918 21.229C64.7442 21.1202 64.9448 21.1062 65.1113 21.1919C65.2778 21.2776 65.3828 21.449 65.3828 21.6362V37.4272C65.3828 39.4805 63.7397 41.3364 61.4727 41.3364H45.6973C44.5855 41.4296 43.5997 41.0719 42.8906 40.3892C42.1779 39.7028 41.7725 38.7163 41.7725 37.6069V29.5317C41.7725 27.4785 43.4148 25.6227 45.6816 25.6226H58.4414L64.5918 21.229Z" fill="#FFB95C" stroke="black" stroke-miterlimit="10" stroke-linecap="round" stroke-linejoin="round"/>
<path d="M58.7808 35.1333L58.8823 35.1431C59.1099 35.1899 59.2808 35.3918 59.2808 35.6333C59.2805 35.8745 59.1098 36.0758 58.8823 36.1226L58.7808 36.1333H48.1938C47.9179 36.1333 47.6941 35.9092 47.6938 35.6333C47.6938 35.3572 47.9177 35.1333 48.1938 35.1333H58.7808ZM58.7808 31.1851C59.0569 31.1851 59.2808 31.4089 59.2808 31.6851C59.2808 31.9612 59.0569 32.1851 58.7808 32.1851H52.8599C52.5837 32.1851 52.3599 31.9612 52.3599 31.6851C52.3599 31.4089 52.5837 31.1851 52.8599 31.1851H58.7808Z" fill="black" stroke="white" stroke-miterlimit="10" stroke-linecap="round" stroke-linejoin="round"/>
<path d="M26.6118 10.6047C26.7783 10.5191 26.979 10.533 27.1313 10.6418L33.2817 15.0354H46.0405C48.3075 15.0354 49.9507 16.8913 49.9507 18.9446V27.0198C49.9507 28.1291 49.5452 29.1157 48.8325 29.802C48.1235 30.4847 47.1376 30.8424 46.0259 30.7493H30.2495C27.9826 30.7491 26.3403 28.8933 26.3403 26.8401V11.0491L26.3452 10.9797C26.3675 10.8202 26.4661 10.6797 26.6118 10.6047Z" fill="#FA4968" stroke="black" stroke-miterlimit="10" stroke-linecap="round" stroke-linejoin="round"/>
<path d="M43.5278 24.5461L43.6294 24.5559C43.857 24.6027 44.0278 24.8047 44.0278 25.0461C44.0276 25.2874 43.8568 25.4886 43.6294 25.5354L43.5278 25.5461H32.9409C32.6649 25.5461 32.4412 25.3221 32.4409 25.0461C32.4409 24.77 32.6648 24.5461 32.9409 24.5461H43.5278ZM38.8628 20.5979L38.9634 20.6077C39.1912 20.6543 39.3628 20.8563 39.3628 21.0979C39.3628 21.3395 39.1912 21.5415 38.9634 21.5881L38.8628 21.5979H32.9409C32.6648 21.5979 32.4409 21.374 32.4409 21.0979C32.4409 20.8218 32.6648 20.5979 32.9409 20.5979H38.8628Z" fill="black" stroke="white" stroke-miterlimit="10" stroke-linecap="round" stroke-linejoin="round"/>
</svg>
