<svg width="71" height="81" viewBox="0 0 71 81" fill="none" xmlns="http://www.w3.org/2000/svg">
<path d="M58.6611 70.3932H69.0897V1.30359H10.4287V10.4286L58.6611 70.3932Z" fill="#FF9811"/>
<path d="M1.30371 10.4286H58.6611V79.5182H1.30371V10.4286Z" fill="#FFEB99"/>
<path d="M28.6787 14.3394H54.7502V41.7145H28.6787V14.3394Z" fill="#E0E0E2"/>
<path d="M5.21436 62.5717H9.12509V66.4824H5.21436V62.5717ZM5.21436 71.6967H9.12509V75.6075H5.21436V71.6967ZM5.21436 35.1966H24.768V41.7145H5.21436V35.1966ZM5.21436 24.768H24.768V31.2859H5.21436V24.768ZM5.21436 14.3394H24.768V20.8572H5.21436V14.3394Z" fill="#78B9EB"/>
<path d="M46.7363 22.5339C41.9636 24.6164 38.325 24.7435 36.5 24.6148V23.8228C36.4998 23.138 36.6345 22.4599 36.8965 21.8272C37.1585 21.1945 37.5426 20.6196 38.0268 20.1353C38.511 19.6511 39.0859 19.267 39.7186 19.005C40.3514 18.7431 41.0295 18.6083 41.7143 18.6085C42.4045 18.6118 43.0869 18.7545 43.7206 19.0281C44.3542 19.3017 44.9261 19.7005 45.4018 20.2005C46.0343 20.8548 46.4931 21.657 46.7363 22.5339Z" fill="#FF5023"/>
<path d="M46.9287 23.9532V27.8313C46.9287 30.7106 44.5937 32.8827 41.7144 32.8827C40.3448 32.895 39.0235 32.3771 38.0269 31.4374C37.5402 30.972 37.1537 30.4121 36.8911 29.792C36.6286 29.1719 36.4955 28.5047 36.5001 27.8313V24.6148C38.3251 24.7435 41.9637 24.6164 46.7365 22.5339C46.8641 22.9962 46.9288 23.4736 46.9287 23.9532Z" fill="#FFDAAA"/>
<path d="M44.3215 35.5225H47.5805C48.4448 35.5225 49.2737 35.8658 49.8849 36.477C50.4961 37.0882 50.8394 37.9171 50.8394 38.7814V42.0403H32.5894V38.7814C32.5894 37.9171 32.9327 37.0882 33.5439 36.477C34.155 35.8658 34.984 35.5225 35.8483 35.5225H44.3215Z" fill="#006DF0"/>
<path d="M44.3217 32.8778V35.5224C44.3217 36.2139 44.047 36.877 43.5581 37.366C43.0692 37.8549 42.406 38.1296 41.7146 38.1296C41.0231 38.1296 40.36 37.8549 39.871 37.366C39.3821 36.877 39.1074 36.2139 39.1074 35.5224V32.8778H44.3217Z" fill="#FFDAAA"/>
<path d="M69.0896 0H10.4286C10.0829 0 9.75131 0.137341 9.50685 0.381809C9.26238 0.626277 9.12504 0.957847 9.12504 1.30358V9.12504H1.30358C0.957847 9.12504 0.626277 9.26238 0.381809 9.50685C0.137341 9.75132 0 10.0829 0 10.4286V79.5182C0 79.8639 0.137341 80.1955 0.381809 80.44C0.626277 80.6844 0.957847 80.8218 1.30358 80.8218H58.661C59.0067 80.8218 59.3383 80.6844 59.5827 80.44C59.8272 80.1955 59.9645 79.8639 59.9645 79.5182V71.6967H69.0896C69.4353 71.6967 69.7669 71.5594 70.0113 71.3149C70.2558 71.0704 70.3931 70.7389 70.3931 70.3932V1.30358C70.3931 0.957847 70.2558 0.626277 70.0113 0.381809C69.7669 0.137341 69.4353 0 69.0896 0ZM57.3574 78.2146H2.60715V11.7322H57.3574V78.2146ZM67.786 69.0896H59.9645V10.4286C59.9645 10.0829 59.8272 9.75132 59.5827 9.50685C59.3383 9.26238 59.0067 9.12504 58.661 9.12504H11.7322V2.60715H67.786V69.0896Z" fill="black"/>
<path d="M54.7506 13.0356H28.6791C28.3334 13.0356 28.0018 13.173 27.7573 13.4175C27.5129 13.6619 27.3755 13.9935 27.3755 14.3392V41.7143C27.3755 42.0601 27.5129 42.3916 27.7573 42.6361C28.0018 42.8806 28.3334 43.0179 28.6791 43.0179H54.7506C55.0964 43.0179 55.4279 42.8806 55.6724 42.6361C55.9169 42.3916 56.0542 42.0601 56.0542 41.7143V14.3392C56.0542 13.9935 55.9169 13.6619 55.6724 13.4175C55.4279 13.173 55.0964 13.0356 54.7506 13.0356ZM49.5363 40.4108H33.8934V38.4554C33.8938 37.9369 34.1 37.4398 34.4666 37.0732C34.8332 36.7066 35.3303 36.5005 35.8488 36.5H38.029C38.2983 37.2624 38.7974 37.9225 39.4575 38.3894C40.1177 38.8563 40.9063 39.107 41.7149 39.107C42.5234 39.107 43.3121 38.8563 43.9722 38.3894C44.6323 37.9225 45.1314 37.2624 45.4007 36.5H47.581C48.0994 36.5005 48.5965 36.7066 48.9631 37.0732C49.3297 37.4398 49.5359 37.9369 49.5363 38.4554V40.4108ZM45.6256 24.059V27.5053C45.6256 29.6074 43.9081 31.2531 41.7149 31.2531C39.5216 31.2531 37.8041 29.6074 37.8041 27.5053V25.6233C39.634 25.594 42.3324 25.273 45.6256 24.059ZM37.8351 23.0162C37.9273 22.2091 38.2711 21.4515 38.8179 20.8508C39.3647 20.2501 40.0867 19.8367 40.8815 19.6692C41.6764 19.5018 42.5038 19.5887 43.2464 19.9177C43.9891 20.2467 44.6094 20.8011 45.0194 21.5024C41.9609 22.6723 39.489 22.9852 37.8351 23.0162ZM43.0184 33.7381V35.1964C43.0184 35.5422 42.8811 35.8737 42.6366 36.1182C42.3922 36.3627 42.0606 36.5 41.7149 36.5C41.3691 36.5 41.0376 36.3627 40.7931 36.1182C40.5486 35.8737 40.4113 35.5422 40.4113 35.1964V33.7381C41.2727 33.901 42.157 33.901 43.0184 33.7381ZM53.447 40.4108H52.1435V38.4554C52.1421 37.2457 51.661 36.086 50.8057 35.2307C49.9503 34.3753 48.7906 33.8942 47.581 33.8929H45.6256V32.6219C46.4372 32.0393 47.0975 31.2707 47.5511 30.3805C48.0047 29.4903 48.2385 28.5044 48.2327 27.5053V23.4968C48.2327 23.4626 48.2311 23.4284 48.2295 23.3958C48.1089 19.8354 45.2329 16.979 41.7149 16.979C39.9867 16.9807 38.3299 17.6679 37.1079 18.8899C35.886 20.1119 35.1987 21.7687 35.197 23.4968V27.5053C35.1913 28.5044 35.425 29.4903 35.8786 30.3805C36.3322 31.2707 36.9925 32.0393 37.8041 32.6219V33.8929H35.8488C34.6391 33.8942 33.4794 34.3753 32.6241 35.2307C31.7687 36.086 31.2876 37.2457 31.2862 38.4554V40.4108H29.9827V15.6428H53.447V40.4108ZM54.7506 61.268H13.0362C12.6904 61.268 12.3589 61.4053 12.1144 61.6498C11.8699 61.8943 11.7326 62.2258 11.7326 62.5716C11.7326 62.9173 11.8699 63.2489 12.1144 63.4933C12.3589 63.7378 12.6904 63.8751 13.0362 63.8751H54.7506C55.0964 63.8751 55.4279 63.7378 55.6724 63.4933C55.9169 63.2489 56.0542 62.9173 56.0542 62.5716C56.0542 62.2258 55.9169 61.8943 55.6724 61.6498C55.4279 61.4053 55.0964 61.268 54.7506 61.268ZM13.0362 67.7859H35.197C35.5427 67.7859 35.8743 67.6485 36.1187 67.4041C36.3632 67.1596 36.5005 66.828 36.5005 66.4823C36.5005 66.1366 36.3632 65.805 36.1187 65.5605C35.8743 65.3161 35.5427 65.1787 35.197 65.1787H13.0362C12.6904 65.1787 12.3589 65.3161 12.1144 65.5605C11.8699 65.805 11.7326 66.1366 11.7326 66.4823C11.7326 66.828 11.8699 67.1596 12.1144 67.4041C12.3589 67.6485 12.6904 67.7859 13.0362 67.7859ZM40.4113 67.7859C40.757 67.7859 41.0886 67.6485 41.333 67.4041C41.5775 67.1596 41.7149 66.828 41.7149 66.4823C41.7149 66.1366 41.5775 65.805 41.333 65.5605C41.0886 65.3161 40.757 65.1787 40.4113 65.1787H39.1077C38.762 65.1787 38.4304 65.3161 38.1859 65.5605C37.9415 65.805 37.8041 66.1366 37.8041 66.4823C37.8041 66.828 37.9415 67.1596 38.1859 67.4041C38.4304 67.6485 38.762 67.7859 39.1077 67.7859H40.4113ZM9.12544 61.268H5.21471C4.86898 61.268 4.53741 61.4053 4.29294 61.6498C4.04847 61.8943 3.91113 62.2258 3.91113 62.5716V66.4823C3.91113 66.828 4.04847 67.1596 4.29294 67.4041C4.53741 67.6485 4.86898 67.7859 5.21471 67.7859H9.12544C9.47117 67.7859 9.80274 67.6485 10.0472 67.4041C10.2917 67.1596 10.429 66.828 10.429 66.4823V62.5716C10.429 62.2258 10.2917 61.8943 10.0472 61.6498C9.80274 61.4053 9.47117 61.268 9.12544 61.268ZM7.82186 65.1787H6.51829V63.8751H7.82186V65.1787ZM54.7506 70.393H13.0362C12.6904 70.393 12.3589 70.5304 12.1144 70.7748C11.8699 71.0193 11.7326 71.3509 11.7326 71.6966C11.7326 72.0423 11.8699 72.3739 12.1144 72.6184C12.3589 72.8628 12.6904 73.0002 13.0362 73.0002H54.7506C55.0964 73.0002 55.4279 72.8628 55.6724 72.6184C55.9169 72.3739 56.0542 72.0423 56.0542 71.6966C56.0542 71.3509 55.9169 71.0193 55.6724 70.7748C55.4279 70.5304 55.0964 70.393 54.7506 70.393ZM35.197 74.3037H13.0362C12.6904 74.3037 12.3589 74.4411 12.1144 74.6856C11.8699 74.93 11.7326 75.2616 11.7326 75.6073C11.7326 75.9531 11.8699 76.2846 12.1144 76.5291C12.3589 76.7736 12.6904 76.9109 13.0362 76.9109H35.197C35.5427 76.9109 35.8743 76.7736 36.1187 76.5291C36.3632 76.2846 36.5005 75.9531 36.5005 75.6073C36.5005 75.2616 36.3632 74.93 36.1187 74.6856C35.8743 74.4411 35.5427 74.3037 35.197 74.3037ZM40.4113 74.3037H39.1077C38.762 74.3037 38.4304 74.4411 38.1859 74.6856C37.9415 74.93 37.8041 75.2616 37.8041 75.6073C37.8041 75.9531 37.9415 76.2846 38.1859 76.5291C38.4304 76.7736 38.762 76.9109 39.1077 76.9109H40.4113C40.757 76.9109 41.0886 76.7736 41.333 76.5291C41.5775 76.2846 41.7149 75.9531 41.7149 75.6073C41.7149 75.2616 41.5775 74.93 41.333 74.6856C41.0886 74.4411 40.757 74.3037 40.4113 74.3037ZM9.12544 70.393H5.21471C4.86898 70.393 4.53741 70.5304 4.29294 70.7748C4.04847 71.0193 3.91113 71.3509 3.91113 71.6966V75.6073C3.91113 75.9531 4.04847 76.2846 4.29294 76.5291C4.53741 76.7736 4.86898 76.9109 5.21471 76.9109H9.12544C9.47117 76.9109 9.80274 76.7736 10.0472 76.5291C10.2917 76.2846 10.429 75.9531 10.429 75.6073V71.6966C10.429 71.3509 10.2917 71.0193 10.0472 70.7748C9.80274 70.5304 9.47117 70.393 9.12544 70.393ZM7.82186 74.3037H6.51829V73.0002H7.82186V74.3037ZM54.7506 44.3215H5.21471C4.86898 44.3215 4.53741 44.4588 4.29294 44.7033C4.04847 44.9478 3.91113 45.2793 3.91113 45.6251C3.91113 45.9708 4.04847 46.3024 4.29294 46.5468C4.53741 46.7913 4.86898 46.9286 5.21471 46.9286H54.7506C55.0964 46.9286 55.4279 46.7913 55.6724 46.5468C55.9169 46.3024 56.0542 45.9708 56.0542 45.6251C56.0542 45.2793 55.9169 44.9478 55.6724 44.7033C55.4279 44.4588 55.0964 44.3215 54.7506 44.3215ZM54.7506 48.2322H5.21471C4.86898 48.2322 4.53741 48.3696 4.29294 48.614C4.04847 48.8585 3.91113 49.1901 3.91113 49.5358C3.91113 49.8815 4.04847 50.2131 4.29294 50.4576C4.53741 50.702 4.86898 50.8394 5.21471 50.8394H54.7506C55.0964 50.8394 55.4279 50.702 55.6724 50.4576C55.9169 50.2131 56.0542 49.8815 56.0542 49.5358C56.0542 49.1901 55.9169 48.8585 55.6724 48.614C55.4279 48.3696 55.0964 48.2322 54.7506 48.2322ZM54.7506 52.1429H5.21471C4.86898 52.1429 4.53741 52.2803 4.29294 52.5248C4.04847 52.7692 3.91113 53.1008 3.91113 53.4465C3.91113 53.7923 4.04847 54.1238 4.29294 54.3683C4.53741 54.6128 4.86898 54.7501 5.21471 54.7501H54.7506C55.0964 54.7501 55.4279 54.6128 55.6724 54.3683C55.9169 54.1238 56.0542 53.7923 56.0542 53.4465C56.0542 53.1008 55.9169 52.7692 55.6724 52.5248C55.4279 52.2803 55.0964 52.1429 54.7506 52.1429ZM5.21471 58.6608H23.4648C23.8105 58.6608 24.1421 58.5235 24.3866 58.279C24.631 58.0346 24.7684 57.703 24.7684 57.3573C24.7684 57.0115 24.631 56.68 24.3866 56.4355C24.1421 56.191 23.8105 56.0537 23.4648 56.0537H5.21471C4.86898 56.0537 4.53741 56.191 4.29294 56.4355C4.04847 56.68 3.91113 57.0115 3.91113 57.3573C3.91113 57.703 4.04847 58.0346 4.29294 58.279C4.53741 58.5235 4.86898 58.6608 5.21471 58.6608ZM28.6791 58.6608C29.0248 58.6608 29.3564 58.5235 29.6009 58.279C29.8453 58.0346 29.9827 57.703 29.9827 57.3573C29.9827 57.0115 29.8453 56.68 29.6009 56.4355C29.3564 56.191 29.0248 56.0537 28.6791 56.0537H27.3755C27.0298 56.0537 26.6982 56.191 26.4537 56.4355C26.2093 56.68 26.0719 57.0115 26.0719 57.3573C26.0719 57.703 26.2093 58.0346 26.4537 58.279C26.6982 58.5235 27.0298 58.6608 27.3755 58.6608H28.6791ZM5.21471 43.0179H24.7684C25.1141 43.0179 25.4457 42.8806 25.6901 42.6361C25.9346 42.3916 26.0719 42.0601 26.0719 41.7143V35.1964C26.0719 34.8507 25.9346 34.5191 25.6901 34.2747C25.4457 34.0302 25.1141 33.8929 24.7684 33.8929H5.21471C4.86898 33.8929 4.53741 34.0302 4.29294 34.2747C4.04847 34.5191 3.91113 34.8507 3.91113 35.1964V41.7143C3.91113 42.0601 4.04847 42.3916 4.29294 42.6361C4.53741 42.8806 4.86898 43.0179 5.21471 43.0179ZM6.51829 36.5H23.4648V40.4108H6.51829V36.5ZM5.21471 32.5893H24.7684C25.1141 32.5893 25.4457 32.452 25.6901 32.2075C25.9346 31.963 26.0719 31.6314 26.0719 31.2857V24.7678C26.0719 24.4221 25.9346 24.0905 25.6901 23.8461C25.4457 23.6016 25.1141 23.4643 24.7684 23.4643H5.21471C4.86898 23.4643 4.53741 23.6016 4.29294 23.8461C4.04847 24.0905 3.91113 24.4221 3.91113 24.7678V31.2857C3.91113 31.6314 4.04847 31.963 4.29294 32.2075C4.53741 32.452 4.86898 32.5893 5.21471 32.5893ZM6.51829 26.0714H23.4648V29.9821H6.51829V26.0714ZM5.21471 22.1607H24.7684C25.1141 22.1607 25.4457 22.0233 25.6901 21.7789C25.9346 21.5344 26.0719 21.2028 26.0719 20.8571V14.3392C26.0719 13.9935 25.9346 13.6619 25.6901 13.4175C25.4457 13.173 25.1141 13.0356 24.7684 13.0356H5.21471C4.86898 13.0356 4.53741 13.173 4.29294 13.4175C4.04847 13.6619 3.91113 13.9935 3.91113 14.3392V20.8571C3.91113 21.2028 4.04847 21.5344 4.29294 21.7789C4.53741 22.0233 4.86898 22.1607 5.21471 22.1607ZM6.51829 15.6428H23.4648V19.5535H6.51829V15.6428Z" fill="black"/>
</svg>
