<svg width="64" height="77" viewBox="0 0 64 77" fill="none" xmlns="http://www.w3.org/2000/svg">
<path d="M10.2823 19.9228H9.13091C8.94027 19.9228 8.75149 19.8852 8.57537 19.8123C8.39924 19.7393 8.2392 19.6324 8.1044 19.4976C7.96959 19.3628 7.86266 19.2027 7.7897 19.0266C7.71675 18.8505 7.6792 18.6617 7.6792 18.4711V13.4654C7.6792 13.0804 7.83215 12.7111 8.1044 12.4389C8.37664 12.1666 8.74589 12.0137 9.13091 12.0137H10.2823V19.9228Z" fill="url(#paint0_linear_10754_2608)"/>
<path d="M10.2823 29.1332H9.13091C8.74589 29.1332 8.37664 28.9803 8.1044 28.708C7.83215 28.4358 7.6792 28.0665 7.6792 27.6815V22.6758C7.6792 22.2908 7.83215 21.9216 8.1044 21.6493C8.37664 21.3771 8.74589 21.2241 9.13091 21.2241H10.2823V29.1332Z" fill="url(#paint1_linear_10754_2608)"/>
<path d="M58.9385 37.0423H60.0898C60.4749 37.0423 60.8441 36.8893 61.1164 36.6171C61.3886 36.3448 61.5416 35.9756 61.5416 35.5906V30.5849C61.5416 30.1999 61.3886 29.8306 61.1164 29.5584C60.8441 29.2861 60.4749 29.1332 60.0898 29.1332H58.9385V37.0423Z" fill="url(#paint2_linear_10754_2608)"/>
<path d="M59.9872 66.6963V9.74105C59.9872 4.36129 55.6259 0 50.246 0H18.9745C13.5945 0 9.2334 4.36129 9.2334 9.74105V66.6963C9.2334 72.0762 13.5947 76.4374 18.9745 76.4374H50.246C55.6259 76.4374 59.9872 72.0762 59.9872 66.6963Z" fill="url(#paint3_linear_10754_2608)"/>
<path d="M48.7058 2.20886H20.5152C15.803 2.20886 11.9829 6.02894 11.9829 10.7412V65.6957C11.9829 70.408 15.803 74.228 20.5152 74.228H48.706C53.4182 74.228 57.2384 70.408 57.2384 65.6957V10.7413C57.2383 6.02894 53.4182 2.20886 48.7058 2.20886Z" fill="url(#paint4_linear_10754_2608)"/>
<path d="M9.2334 41.6476V66.6963C9.2334 72.0762 13.5947 76.4373 18.9745 76.4373H50.246C55.6259 76.4373 59.987 72.076 59.987 66.6963V41.6476H9.2334Z" fill="url(#paint5_linear_10754_2608)"/>
<path d="M20.7451 76.4373H50.246C51.7604 76.4373 53.194 76.0916 54.4725 75.475L26.4517 47.4542L20.7451 53.1608V76.4373Z" fill="url(#paint6_linear_10754_2608)"/>
<path d="M39.2655 74.3348H29.9548C28.7523 74.3348 27.7773 73.3599 27.7773 72.1574C27.7773 70.9548 28.7523 69.9799 29.9548 69.9799H39.2655C40.4681 69.9799 41.443 70.9548 41.443 72.1574C41.443 73.3601 40.4681 74.3348 39.2655 74.3348Z" fill="url(#paint7_linear_10754_2608)"/>
<path d="M54.5913 11.5672V61.1967C54.5913 64.9312 51.5639 67.9586 47.8294 67.9586H21.3909C17.6564 67.9586 14.6289 64.9312 14.6289 61.1967V11.5672C14.6289 7.83276 17.6564 4.8053 21.3909 4.8053H47.8294C51.5639 4.8053 54.5913 7.83276 54.5913 11.5672Z" fill="url(#paint8_linear_10754_2608)"/>
<path d="M59.9872 25.7075C59.6342 25.6222 59.2724 25.5791 58.9092 25.579H49.6831V39.4278L59.9872 49.7319V25.7075Z" fill="url(#paint9_linear_10754_2608)"/>
<path d="M35.5875 16.9192H32.2837C28.4962 16.9192 25.4258 13.8488 25.4258 10.0613V4.8053H42.4452V10.0613C42.4452 13.8488 39.375 16.9192 35.5875 16.9192Z" fill="url(#paint10_linear_10754_2608)"/>
<path d="M41.6162 67.412C37.8004 63.5962 35.6989 58.523 35.6989 53.1264V51.0108C35.6989 47.1174 32.6503 43.9868 28.7584 43.8835L28.3542 43.8728C24.7532 43.777 21.3482 42.3418 18.7657 39.8311L18.743 39.8089C17.1981 38.2648 15.8192 36.5631 14.6289 34.7317V61.1966C14.6289 64.9311 17.6564 67.9586 21.3908 67.9586H42.1862C41.9927 67.7801 41.8026 67.5979 41.6162 67.412Z" fill="url(#paint11_linear_10754_2608)"/>
<path d="M20.7451 53.1608V67.9272C20.9578 67.9473 21.173 67.9586 21.3909 67.9586H42.1862C41.9927 67.78 41.8026 67.5978 41.6162 67.4119C38.7516 64.5474 36.8533 60.9741 36.0849 57.0873L26.4517 47.4542L20.7451 53.1608Z" fill="url(#paint12_linear_10754_2608)"/>
<path d="M49.8953 67.6362C47.993 66.8488 46.2468 65.6839 44.7525 64.1766C41.7985 61.1966 40.2046 57.1288 40.2046 52.9327V51.0109C40.2046 45.4362 36.2638 40.7665 31.0222 39.6357L33.3959 37.2619C34.4808 36.1771 35.9531 35.5749 37.4871 35.5725C41.9038 35.5656 45.495 31.9703 45.495 27.5521V21.2671C45.495 20.6504 45.0198 20.1126 44.4034 20.0941C44.2526 20.0895 44.1025 20.1152 43.9618 20.1696C43.8212 20.2241 43.6929 20.3063 43.5846 20.4113C43.4763 20.5163 43.3903 20.642 43.3315 20.7809C43.2727 20.9198 43.2424 21.0691 43.2424 21.22V27.5787C43.2424 30.7772 40.6258 33.302 37.4274 33.3202C35.3028 33.3324 33.307 34.1655 31.8032 35.6694L29.7944 37.6782C28.5379 38.9347 26.6463 39.3493 25.0024 38.675L24.9431 38.6506C23.3038 37.9649 22.2593 36.3342 22.2593 34.5572V29.9301C22.2593 28.7275 23.2342 27.7526 24.4368 27.7526H25.5029C27.9135 27.7526 29.9537 25.8661 30.0252 23.4565C30.0995 20.9528 28.0844 18.8924 25.5971 18.8924H22.3102C21.7327 18.8924 21.1789 18.663 20.7705 18.2547L14.6294 12.1135V15.2991L19.1778 19.8475C20.0146 20.6843 21.127 21.1452 22.3104 21.1452H25.534C26.705 21.1452 27.7142 22.0432 27.772 23.2129C27.8337 24.4632 26.8343 25.5002 25.5972 25.5002H24.4368C21.9902 25.5002 20.0068 27.4835 20.0068 29.9302V34.4854C17.3143 31.1558 15.4843 27.2743 14.6294 23.1175V30.1244C16.0545 33.1328 17.9697 35.8499 20.3364 38.2166C22.5058 40.3257 25.3895 41.5413 28.4141 41.6216L28.8185 41.6322C33.9016 41.7672 37.9519 45.9265 37.9519 51.0112V53.127C37.9519 57.9217 39.8189 62.4294 43.2094 65.8197C44.0001 66.6107 44.8624 67.3269 45.7851 67.959H47.8297C48.5308 67.959 49.2277 67.8501 49.8953 67.6362Z" fill="url(#paint13_linear_10754_2608)"/>
<path d="M40.2201 33.6158C40.2201 30.2623 37.492 27.534 34.1385 27.534H30.4869C27.0418 27.534 23.803 26.1923 21.3671 23.7564L21.0259 23.4152C19.4788 21.8681 18.6268 19.8111 18.6268 17.6232C18.6268 15.4352 19.4788 13.3782 21.0259 11.8311C22.9136 9.94343 23.987 7.46004 24.076 4.8053H21.8235C21.7355 6.85845 20.8953 8.77615 19.433 10.2384C17.4604 12.2109 16.374 14.8336 16.374 17.6232C16.374 20.4128 17.4604 23.0356 19.433 25.0081L19.7742 25.3493C22.6356 28.2108 26.44 29.7866 30.4869 29.7866H34.1385C36.2499 29.7866 37.9675 31.5042 37.9675 33.6158C37.9675 36.9693 40.6957 39.6975 44.0494 39.6975H50.4042V37.4449H44.0494C41.9378 37.4449 40.2201 35.7271 40.2201 33.6158Z" fill="url(#paint14_linear_10754_2608)"/>
<path d="M52.5257 38.8154L61.3783 25.4024C66.9489 16.962 60.8958 5.71423 50.7828 5.71423C40.6698 5.71423 34.6166 16.9621 40.1873 25.4024L49.0399 38.8154C49.8652 40.0661 51.7002 40.0661 52.5257 38.8154Z" fill="url(#paint15_linear_10754_2608)"/>
<path d="M50.8673 27.2484C55.6173 27.2484 59.4679 23.3978 59.4679 18.6478C59.4679 13.8978 55.6173 10.0471 50.8673 10.0471C46.1172 10.0471 42.2666 13.8978 42.2666 18.6478C42.2666 23.3978 46.1172 27.2484 50.8673 27.2484Z" fill="url(#paint16_linear_10754_2608)"/>
<path d="M27.1578 51.3617C27.0993 51.5223 27.0287 51.683 26.9491 51.8392C25.326 54.9719 24.364 58.4048 24.1229 61.9248C24.0778 62.599 24.1048 63.2748 24.1844 63.9461C24.4337 66.059 25.0029 71.1739 24.8707 72.8918C24.8707 72.9083 24.8692 72.9234 24.8662 72.9399C24.8707 72.8918 3.25346 70.3059 3.25346 70.3059L1.95297 64.1894L0.693029 57.9887C-1.20364 48.2546 0.829686 38.166 6.3395 29.9486L7.72258 28.0385C7.80232 28.3515 7.98409 28.6291 8.23917 28.8274C8.49426 29.0256 8.80813 29.1332 9.13119 29.1332H9.23331V46.0185C9.21547 46.8847 9.2546 47.751 9.35044 48.612C9.75441 52.2582 10.0307 53.7134 12.6347 58.3807C13.0882 59.1931 13.9757 59.2937 14.6035 58.606L14.7747 58.4152C16.1879 54.7517 17.9368 51.2267 19.9991 47.8852C21.181 45.969 23.7189 45.4134 25.6006 46.6538C27.1668 47.684 27.7824 49.6422 27.1578 51.3617Z" fill="url(#paint17_linear_10754_2608)"/>
<path d="M3.25317 70.3058L1.95238 64.1895L1.87744 63.8202L24.105 62.7804C24.1119 63.1696 24.1379 63.5595 24.1843 63.9456C24.433 66.0593 25.002 71.1741 24.8704 72.8922C24.8695 72.9078 24.8686 72.9236 24.8658 72.9401C24.8701 72.8919 3.25317 70.3058 3.25317 70.3058Z" fill="url(#paint18_linear_10754_2608)"/>
<path d="M26.7081 71.4818V73.4945C26.7081 75.2029 25.3232 76.5876 23.615 76.5876H4.58675C2.87839 76.5876 1.49365 75.2027 1.49365 73.4945V71.4818C1.49365 69.7734 2.87854 68.3887 4.58675 68.3887H23.615C25.3234 68.3887 26.7081 69.7734 26.7081 71.4818Z" fill="url(#paint19_linear_10754_2608)"/>
<path d="M47.3509 59.5682C44.9734 59.5682 43.0459 57.6409 43.0459 55.2632V48.3553C43.0459 45.9777 44.9734 44.0503 47.3509 44.0503C49.7284 44.0503 51.6559 45.9776 51.6559 48.3553V55.2632C51.6559 57.6407 49.7284 59.5682 47.3509 59.5682Z" fill="url(#paint20_linear_10754_2608)"/>
<defs>
<linearGradient id="paint0_linear_10754_2608" x1="7.67935" y1="15.9682" x2="9.58143" y2="15.9682" gradientUnits="userSpaceOnUse">
<stop stop-color="#5A5A5A"/>
<stop offset="1" stop-color="#444444"/>
</linearGradient>
<linearGradient id="paint1_linear_10754_2608" x1="7.67935" y1="25.1788" x2="9.58143" y2="25.1788" gradientUnits="userSpaceOnUse">
<stop stop-color="#5A5A5A"/>
<stop offset="1" stop-color="#444444"/>
</linearGradient>
<linearGradient id="paint2_linear_10754_2608" x1="61.5416" y1="33.0877" x2="59.6393" y2="33.0877" gradientUnits="userSpaceOnUse">
<stop stop-color="#5A5A5A"/>
<stop offset="1" stop-color="#444444"/>
</linearGradient>
<linearGradient id="paint3_linear_10754_2608" x1="623.022" y1="17.4144" x2="578.244" y2="62.1921" gradientUnits="userSpaceOnUse">
<stop stop-color="#5A5A5A"/>
<stop offset="1" stop-color="#444444"/>
</linearGradient>
<linearGradient id="paint4_linear_10754_2608" x1="578.198" y1="47.7608" x2="622.791" y2="30.0456" gradientUnits="userSpaceOnUse">
<stop stop-color="#5A5A5A"/>
<stop offset="1" stop-color="#444444"/>
</linearGradient>
<linearGradient id="paint5_linear_10754_2608" x1="34.6102" y1="64.1297" x2="34.6102" y2="75.6216" gradientUnits="userSpaceOnUse">
<stop stop-color="#433F43" stop-opacity="0"/>
<stop offset="1" stop-color="#1A1A1A"/>
</linearGradient>
<linearGradient id="paint6_linear_10754_2608" x1="37.5684" y1="64.3905" x2="28.5581" y2="62.8137" gradientUnits="userSpaceOnUse">
<stop stop-color="#433F43" stop-opacity="0"/>
<stop offset="1" stop-color="#1A1A1A"/>
</linearGradient>
<linearGradient id="paint7_linear_10754_2608" x1="39.0541" y1="76.6014" x2="31.277" y2="68.8241" gradientUnits="userSpaceOnUse">
<stop stop-color="#5A5A5A"/>
<stop offset="1" stop-color="#444444"/>
</linearGradient>
<linearGradient id="paint8_linear_10754_2608" x1="23.3519" y1="25.1237" x2="56.8065" y2="58.5783" gradientUnits="userSpaceOnUse">
<stop stop-color="#EAF6FF"/>
<stop offset="1" stop-color="#B3DAFE"/>
</linearGradient>
<linearGradient id="paint9_linear_10754_2608" x1="59.2258" y1="36.9584" x2="53.5409" y2="31.2735" gradientUnits="userSpaceOnUse">
<stop stop-color="#433F43" stop-opacity="0"/>
<stop offset="1" stop-color="#1A1A1A"/>
</linearGradient>
<linearGradient id="paint10_linear_10754_2608" x1="28.4926" y1="3.41065" x2="40.3251" y2="15.2432" gradientUnits="userSpaceOnUse">
<stop stop-color="#BBEC6C"/>
<stop offset="1" stop-color="#81B823"/>
</linearGradient>
<linearGradient id="paint11_linear_10754_2608" x1="11.2774" y1="42.1301" x2="39.9137" y2="70.7664" gradientUnits="userSpaceOnUse">
<stop stop-color="#BBEC6C"/>
<stop offset="1" stop-color="#81B823"/>
</linearGradient>
<linearGradient id="paint12_linear_10754_2608" x1="32.5333" y1="60.629" x2="21.3455" y2="56.9497" gradientUnits="userSpaceOnUse">
<stop stop-color="#78A91F" stop-opacity="0"/>
<stop offset="1" stop-color="#026841"/>
</linearGradient>
<linearGradient id="paint13_linear_10754_2608" x1="-4.94943" y1="-6.00742" x2="76.2463" y2="75.1885" gradientUnits="userSpaceOnUse">
<stop stop-color="#7BACDF" stop-opacity="0"/>
<stop offset="1" stop-color="#7BACDF"/>
</linearGradient>
<linearGradient id="paint14_linear_10754_2608" x1="17.7383" y1="10.8906" x2="48.496" y2="41.6482" gradientUnits="userSpaceOnUse">
<stop stop-color="#FD4755"/>
<stop offset="1" stop-color="#A72B2B"/>
</linearGradient>
<linearGradient id="paint15_linear_10754_2608" x1="42.994" y1="12.7417" x2="58.5172" y2="28.265" gradientUnits="userSpaceOnUse">
<stop stop-color="#FD4755"/>
<stop offset="1" stop-color="#A72B2B"/>
</linearGradient>
<linearGradient id="paint16_linear_10754_2608" x1="56.2545" y1="24.035" x2="45.4653" y2="13.2458" gradientUnits="userSpaceOnUse">
<stop stop-color="#FD4755"/>
<stop offset="1" stop-color="#A72B2B"/>
</linearGradient>
<linearGradient id="paint17_linear_10754_2608" x1="13.6993" y1="17.466" x2="13.6993" y2="80.6034" gradientUnits="userSpaceOnUse">
<stop stop-color="#FFEEE6"/>
<stop offset="1" stop-color="#FFB09E"/>
</linearGradient>
<linearGradient id="paint18_linear_10754_2608" x1="13.3836" y1="65.55" x2="13.3836" y2="70.4537" gradientUnits="userSpaceOnUse">
<stop stop-color="#F89580" stop-opacity="0"/>
<stop offset="0.997" stop-color="#C5715A"/>
</linearGradient>
<linearGradient id="paint19_linear_10754_2608" x1="14.101" y1="66.8264" x2="14.101" y2="76.9058" gradientUnits="userSpaceOnUse">
<stop stop-color="#B3DAFE"/>
<stop offset="1" stop-color="#0182FC"/>
</linearGradient>
<linearGradient id="paint20_linear_10754_2608" x1="40.0175" y1="44.4759" x2="55.4364" y2="59.8948" gradientUnits="userSpaceOnUse">
<stop stop-color="#B3DAFE"/>
<stop offset="1" stop-color="#0182FC"/>
</linearGradient>
</defs>
</svg>
