<svg width="83" height="74" viewBox="0 0 83 74" fill="none" xmlns="http://www.w3.org/2000/svg">
<path d="M21.3057 63.7357L41.3964 72.7565V36.7987L24.0908 27.7778L21.3057 63.7357Z" fill="#44C868"/>
<path d="M22.7966 44.4866L41.3964 72.7564L21.3057 63.7357L22.7966 44.4866Z" fill="#7EE5F2"/>
<path d="M21.3055 63.7357L1.21484 72.7565L7.71948 36.891L24.0907 27.7778L21.3055 63.7357Z" fill="#4CE166"/>
<path d="M4.59718 54.1071L22.7965 44.4866L21.3056 63.7357L1.21484 72.7564L4.59718 54.1071Z" fill="#A8EEFC"/>
<path d="M61.4871 63.7357L81.5778 72.7565L75.0735 36.891L58.7021 27.7778L61.4871 63.7357Z" fill="#44C868"/>
<path d="M59.5269 38.4262L79.5751 61.7136L75.0736 36.8911L72.5923 35.51L59.5269 38.4262Z" fill="#7EE5F2"/>
<path d="M61.4872 63.7357L41.3965 72.7565V36.7987L58.7022 27.7778L61.4872 63.7357Z" fill="#4CE166"/>
<path d="M4.59717 54.1073L22.7965 44.4868L23.3262 37.6492L5.91812 46.8237L4.59717 54.1073Z" fill="#FFDB56"/>
<path d="M41.401 40.2358L23.3261 37.6493L22.7964 44.4868L41.3962 72.7566V62.477L30.2974 44.9857L41.401 46.3149V40.2358ZM59.5266 38.4262L72.5919 35.5101L64.7517 31.1458L59.0656 32.4753L59.5266 38.4262Z" fill="#FFBB24"/>
<path d="M60.1874 46.9516L59.4823 37.8482L59.066 32.4751L41.4014 40.2357V46.3148L52.9402 41.2929L60.1874 46.9516Z" fill="#FFDB56"/>
<path d="M60.1872 46.9517L81.578 72.7568L79.5751 61.7137L59.5269 38.4263L60.1872 46.9517Z" fill="#FFBB24"/>
<path d="M41.4744 1.21509C32.7575 1.21509 25.6909 8.28148 25.6909 16.9985C25.6909 30.2728 41.4744 42.4865 41.4744 42.4865C41.4744 42.4865 57.2578 30.2728 57.2578 16.9985C57.2576 8.28148 50.1912 1.21509 41.4744 1.21509ZM41.4744 23.2936C37.9978 23.2936 35.1791 20.4753 35.1791 16.9984C35.1791 13.5216 37.9974 10.7031 41.4744 10.7031C44.9513 10.7031 47.7696 13.5216 47.7696 16.9984C47.7696 20.4751 44.951 23.2936 41.4744 23.2936Z" fill="#FF4A4A"/>
<path d="M41.4745 1.21509C40.7322 1.21509 40.0022 1.26764 39.2871 1.36676C46.9688 2.4319 52.8834 9.02401 52.8834 16.9987C52.8834 27.1677 43.6209 36.7141 39.2871 40.624C40.6105 41.818 41.4745 42.4867 41.4745 42.4867C41.4745 42.4867 57.2579 30.273 57.2579 16.9987C57.2577 8.28148 50.1913 1.21509 41.4745 1.21509Z" fill="#E7343F"/>
<path d="M41.3965 62.4768L48.3201 69.6478L41.3965 72.7564V62.4768Z" fill="#FFDB56"/>
<path d="M82.5363 73.5008C82.5421 73.4932 82.5491 73.4866 82.5549 73.4788C82.5911 73.4296 82.6231 73.3781 82.6514 73.3244C82.6593 73.3093 82.6653 73.2933 82.6728 73.2778C82.6915 73.2385 82.7088 73.1986 82.7234 73.1575C82.7307 73.1368 82.7365 73.1158 82.7426 73.0944C82.7717 72.9943 82.7876 72.8909 82.79 72.7867C82.7905 72.7668 82.7921 72.7471 82.7916 72.7269C82.7905 72.6641 82.7845 72.6016 82.7737 72.5398L77.9231 45.7946C77.8946 45.6376 77.8355 45.4877 77.7491 45.3535C77.6627 45.2193 77.5508 45.1035 77.4196 45.0126C77.2885 44.9217 77.1407 44.8575 76.9847 44.8238C76.8288 44.79 76.6677 44.7872 76.5107 44.8157C76.3537 44.8442 76.2038 44.9033 76.0696 44.9897C75.9355 45.076 75.8196 45.188 75.7288 45.3192C75.6379 45.4503 75.5737 45.5981 75.5399 45.754C75.5061 45.91 75.5034 46.0711 75.5318 46.2281L77.5827 57.5364L61.7711 39.1703L72.4056 36.7968L73.9803 37.6734L74.664 41.4436C74.7259 41.7565 74.9084 42.0325 75.172 42.212C75.4355 42.3916 75.7592 42.4604 76.073 42.4035C76.3868 42.3466 76.6657 42.1686 76.8495 41.9079C77.0333 41.6473 77.1072 41.3248 77.0554 41.0101L76.2689 36.6742C76.2368 36.4975 76.166 36.33 76.0615 36.1839C75.957 36.0378 75.8214 35.9167 75.6644 35.8293L59.2914 26.7152L59.293 26.7161L59.2927 26.716L59.2914 26.7152C59.2451 26.6895 59.1971 26.667 59.1478 26.6477C59.1325 26.6417 59.1168 26.6377 59.1011 26.6324C59.0672 26.6201 59.0328 26.6093 58.9979 26.6C58.9782 26.595 58.9583 26.5921 58.9383 26.5882C58.9071 26.5817 58.8757 26.5763 58.8442 26.5722C58.8228 26.5696 58.8015 26.5688 58.7801 26.5675C58.7496 26.5653 58.719 26.5642 58.6884 26.5643C58.6666 26.5644 58.6449 26.5661 58.6231 26.5674C58.5709 26.5705 58.5189 26.5772 58.4676 26.5876C58.4159 26.5978 58.3649 26.6112 58.3149 26.6277C58.2867 26.6373 58.2588 26.648 58.2313 26.6597C58.21 26.6687 58.1886 26.6776 58.1676 26.688C58.1584 26.6925 58.1488 26.6956 58.1398 26.7003L55.3637 28.1474C57.4289 24.2964 58.4722 20.5667 58.4722 16.9986C58.4722 7.62556 50.8467 0 41.4736 0C32.1005 0 24.4755 7.62556 24.4755 16.9986C24.4755 20.6014 25.5382 24.3689 27.6439 28.2596L24.6525 26.7003C24.6433 26.6954 24.6335 26.6922 24.6241 26.6877C24.6037 26.6776 24.5827 26.6689 24.562 26.6602C24.5341 26.6483 24.5058 26.6375 24.4771 26.6277C24.4061 26.6042 24.3332 26.587 24.2593 26.5763C24.2297 26.5722 24.2 26.5693 24.1702 26.5675C24.1479 26.5661 24.1255 26.5646 24.1034 26.5643C24.0737 26.5643 24.0439 26.5653 24.0143 26.5674C23.992 26.5688 23.9697 26.5696 23.9474 26.5724C23.9171 26.5759 23.8872 26.5819 23.8573 26.5877C23.8361 26.5919 23.8148 26.595 23.7937 26.6003C23.7606 26.6088 23.7281 26.6199 23.6956 26.6311C23.6786 26.6369 23.6613 26.6414 23.6443 26.648C23.5952 26.6674 23.5474 26.6898 23.5012 26.7153L23.4999 26.7161L23.4996 26.7163L7.1287 35.8293C6.97171 35.9167 6.83606 36.0378 6.73153 36.1839C6.62701 36.33 6.55621 36.4975 6.52426 36.6742C6.52426 36.6741 6.52426 36.6744 6.52426 36.6742L1.91299 62.0995C1.88453 62.2565 1.88727 62.4176 1.92106 62.5736C1.95485 62.7295 2.01903 62.8773 2.10993 63.0085C2.20084 63.1396 2.31668 63.2516 2.45086 63.338C2.58504 63.4244 2.73492 63.4835 2.89194 63.512C3.04897 63.5405 3.21008 63.5378 3.36607 63.504C3.52206 63.4703 3.66986 63.4061 3.80104 63.3152C3.93221 63.2243 4.04418 63.1084 4.13056 62.9742C4.21693 62.84 4.276 62.6901 4.30441 62.533L5.68777 54.9054L21.4151 46.5916L20.1503 62.9226L2.82273 70.7029L3.43251 67.3395C3.48606 67.024 3.41306 66.7002 3.22935 66.4383C3.04564 66.1763 2.76604 65.9974 2.45124 65.9403C2.13643 65.8833 1.81182 65.9527 1.54785 66.1334C1.28387 66.3142 1.10184 66.5918 1.04126 66.9059L0.0194605 72.54C-0.0199828 72.7577 0.000778598 72.9821 0.0795047 73.1889C0.158231 73.3957 0.291933 73.5771 0.466186 73.7135C0.640439 73.8499 0.848627 73.9361 1.06829 73.9628C1.28795 73.9896 1.51075 73.9559 1.71264 73.8653L21.3058 65.0679L40.8907 73.8615L40.8921 73.8622L40.8988 73.8651C40.9098 73.8701 40.9212 73.8735 40.9326 73.8782C40.9679 73.8929 41.004 73.906 41.0406 73.9173C41.0522 73.9209 41.0639 73.924 41.0755 73.9272C41.1156 73.9384 41.1563 73.9472 41.1974 73.9536C41.2096 73.9555 41.2215 73.9584 41.2338 73.96L41.2585 73.9633C41.2993 73.9679 41.3402 73.9704 41.381 73.9709C41.3861 73.9709 41.3913 73.9718 41.3965 73.9718L41.4042 73.9713C41.4534 73.971 41.5022 73.967 41.5512 73.9607C41.5572 73.9599 41.5634 73.9602 41.5695 73.9592C41.5787 73.9579 41.5878 73.9548 41.5972 73.9534C41.6352 73.9471 41.6732 73.9388 41.7107 73.9287C41.721 73.9259 41.7315 73.9243 41.7419 73.9214L41.7451 73.9207C41.7485 73.9198 41.7516 73.918 41.755 73.9169C41.8022 73.9023 41.8486 73.8856 41.8944 73.8651L61.487 65.068L61.4873 65.0679L81.0806 73.8653C81.0996 73.8737 81.119 73.88 81.1384 73.8874C81.1575 73.8949 81.1762 73.9031 81.1958 73.9096C81.2212 73.918 81.2472 73.9243 81.2731 73.9309C81.2891 73.9351 81.3046 73.9403 81.3209 73.9437C81.3521 73.9505 81.3837 73.9548 81.4152 73.9592C81.4265 73.9607 81.4375 73.9633 81.4488 73.9646C81.492 73.9692 81.5352 73.9717 81.5784 73.9717H81.5788C81.6518 73.9711 81.7246 73.964 81.7963 73.9505C81.8549 73.9403 81.9125 73.9258 81.9689 73.907C81.9724 73.9057 81.976 73.9039 81.9795 73.9028C82.0171 73.8897 82.0544 73.8753 82.091 73.858C82.1016 73.853 82.1108 73.8459 82.1214 73.8405C82.1519 73.8252 82.1814 73.8075 82.2108 73.7893C82.2402 73.7713 82.2695 73.7532 82.2971 73.7327C82.3067 73.7256 82.3173 73.7205 82.3269 73.7133C82.3482 73.6966 82.3668 73.6774 82.3869 73.6593C82.4029 73.6449 82.4195 73.6313 82.4349 73.6161C82.4715 73.5799 82.5049 73.5412 82.5363 73.5008ZM48.6011 68.1895L42.6117 61.986V47.1132L52.7621 42.6955L59.0169 47.5796L60.2096 62.9775L48.6011 68.1895ZM42.6117 70.879V65.485L46.2445 69.2477L42.6117 70.879ZM37.8452 40.9542C38.8563 41.8925 39.676 42.5893 40.1813 43.0054V44.9448L30.4421 43.7788C30.2138 43.7515 29.9825 43.7896 29.775 43.8885C29.5675 43.9874 29.3923 44.1432 29.2697 44.3377C29.1472 44.5323 29.0823 44.7575 29.0827 44.9874C29.083 45.2174 29.1486 45.4424 29.2717 45.6366L40.1813 62.8301V68.699L24.0403 44.1664L24.2381 41.6126L24.4376 39.0361L37.8452 40.9542ZM47.0239 39.0928L57.9868 34.2767L58.763 44.2977L53.6881 40.3352C53.5157 40.2006 53.3102 40.115 53.0932 40.0875C52.8763 40.0599 52.6559 40.0914 52.4553 40.1786L42.6167 44.4608V43.1292C43.3518 42.5304 45.022 41.1186 47.0239 39.0928ZM61.0388 42.209L61.0249 42.0284L78.4386 62.2559L79.5551 68.4123L61.369 46.4731L61.0388 42.209ZM60.0885 29.9403L61.4139 30.6782L60.1682 30.9695L60.0885 29.9403ZM32.6956 46.4964L40.1813 47.3927V58.2938L32.6956 46.4964ZM23.7341 48.1219L38.0884 69.9391L22.5836 62.9774L23.7341 48.1219ZM61.6943 50.6736L77.3051 69.5061L62.6429 62.9227L61.6943 50.6736ZM69.2123 35.0192L60.63 36.9346L60.3578 33.4206L64.571 32.4354L69.2123 35.0192ZM57.6327 29.7057L57.7879 31.7095L50.9393 34.7183C51.6003 33.9004 52.2347 33.0616 52.8418 32.203L57.6327 29.7057ZM41.4744 2.43038C49.5075 2.43038 56.0428 8.96574 56.0428 16.9988C56.0428 27.8998 44.543 38.328 41.4744 40.9157C38.4058 38.3276 26.9062 27.8996 26.9062 16.9988C26.9062 8.96574 33.4414 2.43038 41.4744 2.43038ZM32.6511 35.5004C33.3924 36.3846 34.1598 37.2465 34.9523 38.0851L24.626 36.6075L25.1606 29.7057L30.1976 32.3314C30.9436 33.3804 31.7606 34.4369 32.6511 35.5004ZM22.7047 29.9403L22.3556 34.4487L22.1667 36.8869L7.55931 44.5854L8.81283 37.6736L22.7047 29.9403ZM6.23918 51.8647L6.98915 47.7293L7.00839 47.6228L21.9448 39.7509L21.6369 43.7253L6.23918 51.8647Z" fill="black"/>
<path d="M48.9846 16.9987C48.9846 12.8575 45.6155 9.48828 41.4742 9.48828C41.1519 9.48828 40.8428 9.61631 40.6149 9.8442C40.387 10.0721 40.259 10.3812 40.259 10.7035C40.259 11.0258 40.387 11.3349 40.6149 11.5628C40.8428 11.7906 41.1519 11.9187 41.4742 11.9187C44.2753 11.9187 46.5542 14.1976 46.5542 16.9987C46.5542 19.7998 44.2753 22.0788 41.4742 22.0788C38.673 22.0788 36.3941 19.7999 36.3941 16.9987C36.3941 15.6587 36.9112 14.3943 37.8504 13.4384C37.9622 13.3246 38.0506 13.1898 38.1103 13.0419C38.1701 12.8939 38.2001 12.7356 38.1987 12.5761C38.1973 12.4165 38.1645 12.2588 38.1021 12.1119C38.0397 11.9651 37.949 11.8319 37.8352 11.7201C37.7214 11.6082 37.5866 11.5199 37.4387 11.4601C37.2907 11.4003 37.1324 11.3703 36.9728 11.3717C36.8133 11.3731 36.6555 11.4059 36.5086 11.4683C36.3617 11.5307 36.2286 11.6214 36.1168 11.7353C34.7284 13.1484 33.9639 15.0177 33.9639 16.9987C33.9639 21.1399 37.3329 24.5092 41.4743 24.5092C45.6157 24.5092 48.9846 21.1398 48.9846 16.9987Z" fill="black"/>
</svg>
