<svg width="70" height="70" viewBox="0 0 70 70" fill="none" xmlns="http://www.w3.org/2000/svg">
<path d="M28.2257 31.613V37.2581C28.2257 41.317 26.4404 44.9595 23.6122 47.4434L23.6107 47.4448C22.3053 46.7095 20.798 46.2904 19.1934 46.2904H18.0644V41.7742C19.6566 41.4576 21.0894 40.5975 22.1176 39.3412C23.097 38.1458 23.6827 36.6315 23.7081 35.0001H24.8386C25.7728 35.0001 26.6196 34.6204 27.2335 34.0079C27.846 33.394 28.2257 32.5472 28.2257 31.613ZM20.3224 25.9678H15.8063C13.6541 25.9678 11.7009 25.1069 10.2755 23.7097H10.1612C7.66741 23.7097 5.64503 25.7321 5.64503 28.2259H4.516C2.64604 28.2259 1.12891 29.743 1.12891 31.613V23.7097C1.12891 18.7208 5.17225 14.6775 10.1612 14.6775H19.1934L19.8172 15.9251C19.9724 16.2356 20.2067 16.4868 20.4904 16.6632C20.7741 16.8382 21.1057 16.9356 21.4515 16.9356C22.143 16.9356 22.7767 16.5446 23.0857 15.9251L23.2339 15.6287C26.1934 17.112 28.2257 20.1731 28.2257 23.7097V31.613C28.2257 29.743 26.7085 28.2259 24.8386 28.2259H23.7095C23.7095 26.9783 22.6991 25.9678 21.4515 25.9678H20.3224ZM11.2902 41.7742V46.2904H10.1612C8.55511 46.2904 7.04785 46.7095 5.74241 47.4434C2.91419 44.9595 1.12891 41.317 1.12891 37.2581V31.613C1.12891 32.5472 1.50854 33.394 2.12104 34.0079C2.73495 34.6204 3.58173 35.0001 4.516 35.0001H5.64644C5.69725 38.2997 8.04422 41.1251 11.2902 41.7742Z" fill="#656D78"/>
<path d="M61.9036 23.7097C61.4379 25.0251 60.1833 25.9678 58.7099 25.9678C58.0932 25.9678 57.5145 25.8013 57.0163 25.5134C56.5182 25.8013 55.9395 25.9678 55.3228 25.9678C54.7061 25.9678 54.1274 25.8013 53.6292 25.5134C53.1146 25.8114 52.5304 25.9681 51.9357 25.9678C50.4623 25.9678 49.2077 25.0251 48.742 23.7097H48.5486C47.301 23.7097 46.2905 24.7202 46.2905 25.9678V28.2259H45.1615C44.4954 28.2259 43.8744 28.4178 43.3508 28.7523L43.3494 28.7509C42.3742 27.7362 41.7744 26.3573 41.7744 24.8388C41.7744 24.0358 41.9438 23.2722 42.2458 22.5807C41.9345 21.8686 41.774 21.0998 41.7744 20.3227C41.7744 19.936 41.8139 19.5591 41.8873 19.1936C42.4109 16.6166 44.6887 14.6775 47.4196 14.6775C47.7408 14.2498 48.1209 13.8696 48.5486 13.5485C49.4913 12.84 50.6641 12.4194 51.9357 12.4194C53.2073 12.4194 54.3786 12.84 55.3228 13.5485C56.2669 12.84 57.4383 12.4194 58.7099 12.4194C60.5573 12.4194 62.1958 13.3071 63.226 14.6775C66.3436 14.6775 68.8712 17.2051 68.8712 20.3227C68.8712 21.1257 68.7018 21.8892 68.3998 22.5807C68.7018 23.2722 68.8712 24.0358 68.8712 24.8388C68.8712 26.3573 68.2714 27.7362 67.2962 28.7509L67.2948 28.7523C66.754 28.4071 66.1256 28.2244 65.4841 28.2259H64.355V25.9678C64.355 24.7202 63.3446 23.7097 62.097 23.7097H61.9036Z" fill="#B27946"/>
<path d="M48.5489 12.4194V13.5485C48.1211 13.8697 47.741 14.2498 47.4198 14.6775C44.689 14.6775 42.4112 16.6166 41.8876 19.1936H41.7747L41.1509 20.4412C40.9993 20.7449 40.7662 21.0005 40.4777 21.1793C40.1888 21.3575 39.8561 21.4518 39.5166 21.4517C38.8251 21.4517 38.1914 21.0608 37.8824 20.4412L37.2586 19.1936H32.7424C31.4949 19.1936 30.4844 18.1831 30.4844 16.9356V12.4194C30.4844 11.1719 31.4949 10.1614 32.7424 10.1614H46.2908C47.5384 10.1614 48.5489 11.1719 48.5489 12.4194Z" fill="#CCD1D9"/>
<path d="M30.4839 3.38721V12.4195C30.4839 13.667 29.4735 14.6775 28.2259 14.6775H23.7097L23.2341 15.6287L23.086 15.9251C22.9343 16.2287 22.7011 16.4841 22.4124 16.6626C22.1237 16.8411 21.7911 16.9356 21.4517 16.9356C21.1059 16.9356 20.7743 16.8382 20.4906 16.6632C20.2021 16.4844 19.969 16.2288 19.8174 15.9251L19.1936 14.6775H14.6775C13.4299 14.6775 12.4194 13.667 12.4194 12.4195V3.38721C12.4194 2.13963 13.4299 1.12915 14.6775 1.12915H28.2259C29.4735 1.12915 30.4839 2.13963 30.4839 3.38721Z" fill="#E6E9ED"/>
<path d="M50.8061 62.0967L49.21 60.5006C48.7866 60.0772 48.2122 59.8387 47.6124 59.8387H46.29V51.9354C46.29 51.3117 45.7848 50.8064 45.161 50.8064H42.9819C44.5442 48.1066 47.4628 46.2903 50.8061 46.2903H51.9352L55.3222 50.8064L58.7093 46.2903H59.8384C64.8273 46.2903 68.8706 50.3336 68.8706 55.3225V64.3548C68.8706 66.8485 66.8482 68.8709 64.3545 68.8709H50.8061V62.0967Z" fill="#FCD770"/>
<path d="M7.9031 57.5806H1.12891V55.3225C1.12891 51.9383 2.98899 48.9901 5.74241 47.4433C7.04785 46.7094 8.55511 46.2903 10.1612 46.2903H11.2902V47.4193C11.2902 49.2893 12.8073 50.8064 14.6773 50.8064C15.6116 50.8064 16.4583 50.4268 17.0722 49.8143C17.6847 49.2004 18.0644 48.3536 18.0644 47.4193V46.2903H19.1934C20.798 46.2903 22.3053 46.7094 23.6107 47.4447C25.0272 48.2396 26.2039 49.4007 27.0176 50.8064H24.8386C24.2148 50.8064 23.7095 51.3117 23.7095 51.9354V59.8387H22.3872C21.7874 59.8387 21.213 60.0772 20.7896 60.5006L19.1934 62.0967H7.9031V57.5806Z" fill="#F29ED0"/>
<path d="M46.2906 51.9354V59.8386H44.0325C42.7849 59.8386 41.7745 60.8491 41.7745 62.0967V64.3548H38.3874C37.7636 64.3548 37.2583 63.8495 37.2583 63.2257V51.9354C37.2583 51.3116 37.7636 50.8064 38.3874 50.8064H45.1616C45.7853 50.8064 46.2906 51.3116 46.2906 51.9354ZM32.7422 51.9354V63.2257C32.7422 63.8495 32.237 64.3548 31.6132 64.3548H28.2261V62.0967C28.2261 60.8491 27.2156 59.8386 25.968 59.8386H23.71V51.9354C23.71 51.3116 24.2152 50.8064 24.839 50.8064H31.6132C32.237 50.8064 32.7422 51.3116 32.7422 51.9354Z" fill="#969FAA"/>
<path d="M64.3544 35H64.353C64.3544 34.9633 64.3544 34.9252 64.3544 34.8885V28.2258H65.4835C66.1496 28.2258 66.7706 28.4178 67.2942 28.7522C68.2411 29.3506 68.8706 30.4091 68.8706 31.6129C68.8706 32.5472 68.4909 33.394 67.8784 34.0079C67.2645 34.6204 66.4177 35 65.4835 35H64.3544Z" fill="#F0D0B4"/>
<path d="M64.3545 28.2258V34.8885C64.3545 34.9252 64.3545 34.9633 64.3531 35C64.3023 38.2996 61.9553 41.125 58.7094 41.7742V46.2903L55.3223 50.8065L51.9352 46.2903V41.7742C50.3429 41.4575 48.9102 40.5975 47.882 39.3412C46.9025 38.1458 46.3169 36.6315 46.2915 35C46.29 34.9633 46.29 34.9252 46.29 34.8885V25.9678C46.29 24.7202 47.3005 23.7097 48.5481 23.7097H48.7414C49.2072 25.025 50.4618 25.9678 51.9352 25.9678C52.5519 25.9678 53.1306 25.8012 53.6287 25.5133C54.1269 25.8012 54.7056 25.9678 55.3223 25.9678C55.939 25.9678 56.5177 25.8012 57.0158 25.5133C57.514 25.8012 58.0927 25.9678 58.7094 25.9678C60.1828 25.9678 61.4374 25.025 61.9031 23.7097H62.0965C63.3441 23.7097 64.3545 24.7202 64.3545 25.9678V28.2258Z" fill="#F0D0B4"/>
<path d="M46.2902 34.8885C46.2902 34.9252 46.2902 34.9633 46.2916 35H45.1611C44.2269 35 43.3801 34.6204 42.7662 34.0079C42.1537 33.394 41.774 32.5472 41.774 31.6129C41.774 30.4091 42.4035 29.3506 43.3505 28.7522C43.874 28.4178 44.495 28.2258 45.1611 28.2258H46.2902V34.8885ZM50.8063 62.0968V68.871H44.0321C42.7845 68.871 41.774 67.8605 41.774 66.6129V62.0968C41.774 60.8492 42.7845 59.8387 44.0321 59.8387H47.6125C48.2123 59.8387 48.7867 60.0772 49.2101 60.5006L50.8063 62.0968ZM7.9031 62.0968H19.1934L20.7896 60.5006C21.213 60.0772 21.7874 59.8387 22.3872 59.8387H25.9676C27.2152 59.8387 28.2257 60.8492 28.2257 62.0968V66.6129C28.2257 67.8605 27.2152 68.871 25.9676 68.871H5.64503C3.15128 68.871 1.12891 66.8486 1.12891 64.3548V57.5806H7.9031V62.0968ZM23.7095 34.8885V28.2258H24.8386C26.7085 28.2258 28.2257 29.743 28.2257 31.6129C28.2257 32.5472 27.846 33.394 27.2335 34.0079C26.6196 34.6204 25.7728 35 24.8386 35H23.7081C23.7095 34.9633 23.7095 34.9252 23.7095 34.8885Z" fill="#F0D0B4"/>
<path d="M23.71 28.2258V34.8885C23.71 34.9252 23.71 34.9633 23.7086 35C23.6832 36.6315 23.0975 38.1458 22.1181 39.3412C21.0899 40.5975 19.6571 41.4575 18.0649 41.7742V47.4194C18.0649 48.3537 17.6852 49.2004 17.0727 49.8143C16.4588 50.4268 15.612 50.8065 14.6778 50.8065C12.8078 50.8065 11.2907 49.2893 11.2907 47.4194V41.7742C8.0447 41.125 5.69773 38.2996 5.64692 35C5.64551 34.9633 5.64551 34.9252 5.64551 34.8885V28.2258C5.64551 25.7321 7.66789 23.7097 10.1616 23.7097H10.2759C11.7013 25.1069 13.6546 25.9678 15.8068 25.9678H21.4519C22.6995 25.9678 23.71 26.9783 23.71 28.2258Z" fill="#F0D0B4"/>
<path d="M5.64503 34.8885C5.64503 34.9252 5.64503 34.9633 5.64644 35H4.516C3.58173 35 2.73495 34.6204 2.12104 34.0079C1.50854 33.394 1.12891 32.5472 1.12891 31.6129C1.12891 29.743 2.64604 28.2258 4.516 28.2258H5.64503V34.8885Z" fill="#F0D0B4"/>
<path d="M13.5483 29.3549H15.8064V33.871H13.5483V29.3549Z" fill="black"/>
<path d="M10.1613 31.6129C10.7848 31.6129 11.2903 31.1074 11.2903 30.4839C11.2903 29.8603 10.7848 29.3549 10.1613 29.3549C9.53771 29.3549 9.03223 29.8603 9.03223 30.4839C9.03223 31.1074 9.53771 31.6129 10.1613 31.6129Z" fill="black"/>
<path d="M19.1935 31.6129C19.817 31.6129 20.3225 31.1074 20.3225 30.4839C20.3225 29.8603 19.817 29.3549 19.1935 29.3549C18.5699 29.3549 18.0645 29.8603 18.0645 30.4839C18.0645 31.1074 18.5699 31.6129 19.1935 31.6129Z" fill="black"/>
<path d="M10.3994 35.7433C11.2147 37.3741 12.8539 38.3871 14.6771 38.3871C16.5004 38.3871 18.1396 37.3741 18.9548 35.7435L19.074 35.5051L17.0545 34.4951L16.9352 34.7336C16.5048 35.5945 15.6395 36.1292 14.6771 36.1292C13.7148 36.1292 12.8495 35.5944 12.4191 34.7334L12.2998 34.4951L10.2803 35.5051L10.3994 35.7433ZM54.1932 29.3549H56.4513V33.871H54.1932V29.3549Z" fill="black"/>
<path d="M59.839 31.6129C60.4625 31.6129 60.968 31.1074 60.968 30.4839C60.968 29.8603 60.4625 29.3549 59.839 29.3549C59.2154 29.3549 58.71 29.8603 58.71 30.4839C58.71 31.1074 59.2154 31.6129 59.839 31.6129Z" fill="black"/>
<path d="M50.8068 31.6129C51.4303 31.6129 51.9358 31.1074 51.9358 30.4839C51.9358 29.8603 51.4303 29.3549 50.8068 29.3549C50.1832 29.3549 49.6777 29.8603 49.6777 30.4839C49.6777 31.1074 50.1832 31.6129 50.8068 31.6129Z" fill="black"/>
<path d="M57.5807 34.7335C57.1503 35.5944 56.285 36.1291 55.3227 36.1291C54.3603 36.1291 53.495 35.5944 53.0646 34.7334L52.9453 34.495L50.9258 35.5051L51.0449 35.7433C51.8602 37.3742 53.4994 38.3872 55.3227 38.3872C57.1459 38.3872 58.7851 37.3742 59.6003 35.7436L59.7195 35.5052L57.7 34.4951L57.5807 34.7335Z" fill="black"/>
<path d="M69.6131 22.5806C69.8702 21.8556 70.0011 21.0918 70 20.3226C70 16.7736 67.2568 13.8532 63.7794 13.5708C62.4936 12.1149 60.6749 11.2903 58.7096 11.2903C57.5045 11.2903 56.348 11.6015 55.3225 12.1962C54.2971 11.6015 53.1406 11.2903 51.9355 11.2903C51.1389 11.2896 50.3485 11.429 49.6002 11.702C49.2701 10.1778 47.9119 9.03225 46.2903 9.03225H32.7419C32.346 9.03225 31.9663 9.10112 31.6129 9.22645V3.38709C31.6129 1.51954 30.0935 0 28.2258 0H14.6774C12.8097 0 11.2903 1.51954 11.2903 3.38709V12.4193C11.2903 12.8151 11.3592 13.195 11.4845 13.5484H10.1613C4.55832 13.5484 0 18.1067 0 23.7097V37.258C0 40.9963 1.42808 44.5756 3.95838 47.2824C1.55312 49.1425 0 52.0537 0 55.3225V64.3548C0 67.4675 2.53242 70 5.64516 70H25.9677C27.8353 70 29.3548 68.4804 29.3548 66.6129V65.4838H31.6129C32.8579 65.4838 33.8709 64.4708 33.8709 63.2258V51.9355C33.8709 50.6904 32.8579 49.6774 31.6129 49.6774H27.6432C27.0295 48.7622 26.2711 47.9528 25.3977 47.281C27.9273 44.5744 29.3548 40.9956 29.3548 37.258V23.7097C29.3548 20.583 27.951 17.7103 25.5865 15.8064H28.2258C28.6217 15.8064 29.0014 15.7376 29.3548 15.6122V16.9355C29.3548 18.803 30.8742 20.3226 32.7419 20.3226H36.5603L36.8723 20.9466C37.3762 21.9544 38.3892 22.5806 39.5161 22.5806C40.0181 22.5806 40.4972 22.4557 40.9192 22.2287C40.9539 22.3466 40.9908 22.4642 41.032 22.5806C40.7748 23.3057 40.644 24.0694 40.6451 24.8387C40.6451 26.1982 41.0476 27.5018 41.7922 28.6095C41.0795 29.4083 40.6451 30.4606 40.6451 31.6129C40.6451 34.1031 42.671 36.129 45.1613 36.129H45.2577C45.7262 39.1547 47.8786 41.697 50.8064 42.6445V45.1613C47.4123 45.1613 44.2331 46.8761 42.3567 49.6774H38.3871C37.142 49.6774 36.129 50.6904 36.129 51.9355V63.2258C36.129 64.4708 37.142 65.4838 38.3871 65.4838H40.6451V66.6129C40.6451 68.4804 42.1647 70 44.0322 70H64.3548C67.4675 70 70 67.4675 70 64.3548V55.3225C70 49.7196 65.4416 45.1613 59.8387 45.1613V42.6445C62.7664 41.697 64.9189 39.1547 65.3874 36.129H65.4838C67.9741 36.129 70 34.1031 70 31.6129C70 30.4606 69.5656 29.4083 68.8529 28.6095C69.5975 27.5018 70 26.1982 70 24.8387C70 24.0622 69.8701 23.3048 69.6131 22.5806ZM54.6444 14.451L55.3225 14.9604L56.0007 14.451C56.7868 13.8606 57.7236 13.5484 58.7096 13.5484C60.1434 13.5484 61.4604 14.207 62.3231 15.3555L62.6618 15.8064H63.2258C65.716 15.8064 67.7419 17.8323 67.7419 20.3226C67.7419 20.9492 67.6152 21.5567 67.3654 22.1285L67.1678 22.5806L67.3654 23.0328C67.6147 23.6022 67.7429 24.2171 67.7419 24.8387C67.7419 25.7447 67.4737 26.6135 66.9777 27.3518C66.4978 27.1828 65.9926 27.0966 65.4838 27.0968V25.9677C65.4838 24.4941 64.5374 23.2379 63.2208 22.7733C63.2235 22.7093 63.2258 22.6453 63.2258 22.5806C63.2264 21.4695 62.8168 20.3972 62.0756 19.5695L60.393 21.0755C60.7635 21.4893 60.9681 22.0252 60.9677 22.5806C60.9677 23.8257 59.9547 24.8387 58.7096 24.8387C58.3135 24.8387 57.9234 24.7341 57.5816 24.5363L57.0161 24.209L56.4506 24.5363C55.767 24.932 54.8781 24.932 54.1946 24.5363L53.629 24.209L53.0635 24.5363C52.7206 24.7344 52.3315 24.8387 51.9355 24.8387C50.6904 24.8387 49.6774 23.8257 49.6774 22.5806C49.677 22.0252 49.8816 21.4893 50.2521 21.0755L48.5695 19.5695C47.8282 20.3972 47.4186 21.4695 47.4193 22.5806C47.4193 22.6453 47.4216 22.7092 47.4243 22.7733C46.1077 23.2379 45.1613 24.4941 45.1613 25.9677V27.0968C44.6378 27.0968 44.1353 27.1872 43.6674 27.3518C43.168 26.6089 42.9018 25.7338 42.9032 24.8387C42.9032 24.2121 43.0299 23.6045 43.2797 23.0328L43.4773 22.5806L43.2797 22.1285C43.0304 21.5591 42.9022 20.9441 42.9032 20.3226C42.9032 17.8323 44.9291 15.8064 47.4193 15.8064H47.9833L48.322 15.3555C49.1847 14.207 50.5017 13.5484 51.9355 13.5484C52.9215 13.5484 53.8583 13.8606 54.6444 14.451ZM4.51613 33.8709C3.27109 33.8709 2.25806 32.8579 2.25806 31.6129C2.25806 30.3678 3.27109 29.3548 4.51613 29.3548V33.8709ZM2.25806 37.258V35.5215C2.94382 35.92 3.72297 36.1296 4.51613 36.129H4.61252C5.08107 39.1547 7.23342 41.697 10.1613 42.6445V45.1613C8.70424 45.1604 7.26427 45.4749 5.94026 46.0831C3.59187 43.7566 2.25806 40.5813 2.25806 37.258ZM21.4516 27.0968C22.0741 27.0968 22.5806 27.6033 22.5806 28.2258V34.8882C22.5806 37.6876 20.5882 40.118 17.8431 40.667L16.9355 40.8485V47.4193C16.9355 48.6644 15.9224 49.6774 14.6774 49.6774C13.4324 49.6774 12.4193 48.6644 12.4193 47.4193V40.8485L11.5117 40.667C8.76665 40.118 6.77419 37.6876 6.77419 34.8882V28.2258C6.77419 26.4617 8.12973 25.0082 9.85405 24.8525C11.4446 26.249 13.5283 27.0968 15.8064 27.0968H21.4516ZM10.1613 47.4193C10.1613 49.9095 12.1872 51.9355 14.6774 51.9355C17.1676 51.9355 19.1935 49.9095 19.1935 47.4193C21.2822 47.4193 23.266 48.255 24.7266 49.683C23.5338 49.742 22.5806 50.7282 22.5806 51.9355V58.7096H22.3869C21.9419 58.7084 21.5011 58.7955 21.0899 58.9658C20.6788 59.1361 20.3056 59.3863 19.9918 59.7018L18.7258 60.9677H9.03225V51.9355H6.77419V56.4516H2.25806V55.3225C2.25806 50.9648 5.8035 47.4193 10.1613 47.4193ZM27.0968 66.6129C27.0968 67.2354 26.5902 67.7419 25.9677 67.7419H5.64516C3.7776 67.7419 2.25806 66.2224 2.25806 64.3548V58.7096H6.77419V61.6292L4.84679 63.5566L6.44338 65.1532L8.37078 63.2258H19.6611L21.5884 61.2984C21.693 61.1932 21.8174 61.1098 21.9544 61.0531C22.0915 60.9963 22.2384 60.9673 22.3867 60.9677H25.9677C26.5902 60.9677 27.0968 61.4742 27.0968 62.0967V66.6129ZM31.6129 63.2258H29.3548V62.0967C29.3548 60.2292 27.8353 58.7096 25.9677 58.7096H24.8387V51.9355H31.6129V63.2258ZM23.4133 46.0842C22.0893 45.477 20.6501 45.1622 19.1935 45.1613V42.6445C22.1213 41.697 24.2738 39.1547 24.7423 36.129H24.8387C25.6319 36.1296 26.411 35.92 27.0968 35.5215V37.258C27.0968 40.5819 25.7625 43.7576 23.4133 46.0842ZM24.8387 29.3548C26.0837 29.3548 27.0968 30.3678 27.0968 31.6129C27.0968 32.8579 26.0837 33.8709 24.8387 33.8709V29.3548ZM27.0968 23.7097V27.7043C26.411 27.3058 25.6319 27.0961 24.8387 27.0968H24.6445C24.1785 25.7827 22.9234 24.8387 21.4516 24.8387H20.3226C16.5873 24.8387 13.5484 21.7998 13.5484 18.0645H11.2903C11.2903 20.648 12.3824 22.9799 14.127 24.6277C11.2014 23.8787 9.03225 21.2203 9.03225 18.0645H6.77419C6.77215 19.7903 7.26742 21.4801 8.20072 22.9318C6.39441 23.6028 5.02193 25.1737 4.63002 27.0968H4.51613C3.72297 27.0961 2.94382 27.3058 2.25806 27.7043V23.7097C2.25806 19.3519 5.8035 15.8064 10.1613 15.8064H18.4958L18.8078 16.4305C19.3117 17.4383 20.3247 18.0645 21.4516 18.0645C22.2806 18.0645 23.0472 17.7247 23.5956 17.1442C25.7769 18.6018 27.0968 21.0363 27.0968 23.7097ZM28.2258 13.5484H23.0119L22.0757 15.4209C21.9568 15.6587 21.7176 15.8064 21.4516 15.8064C21.1856 15.8064 20.9464 15.6587 20.8275 15.4207L19.8913 13.5484H14.6774C14.0549 13.5484 13.5484 13.0419 13.5484 12.4193V3.38709C13.5484 2.76457 14.0549 2.25806 14.6774 2.25806H28.2258C28.8483 2.25806 29.3548 2.76457 29.3548 3.38709V12.4193C29.3548 13.0419 28.8483 13.5484 28.2258 13.5484ZM39.5161 20.3226C39.3864 20.323 39.2592 20.2872 39.1489 20.219C39.0386 20.1508 38.9496 20.0531 38.892 19.9369L37.9558 18.0645H32.7419C32.1194 18.0645 31.6129 17.558 31.6129 16.9355V12.4193C31.6129 11.7968 32.1194 11.2903 32.7419 11.2903H46.2903C46.9128 11.2903 47.4193 11.7968 47.4193 12.4193V13.0138C47.2242 13.1887 47.0394 13.3747 46.8657 13.5708C44.0715 13.7978 41.7529 15.7284 40.949 18.3192L40.1402 19.9369C40.0826 20.0531 39.9936 20.1508 39.8833 20.219C39.773 20.2872 39.6458 20.323 39.5161 20.3226ZM42.9032 31.6129C42.9032 30.3678 43.9162 29.3548 45.1613 29.3548V33.8709C43.9162 33.8709 42.9032 32.8579 42.9032 31.6129ZM38.3871 63.2258V51.9355H45.1613V58.7096H44.0322C42.1647 58.7096 40.6451 60.2292 40.6451 62.0967V63.2258H38.3871ZM42.9032 66.6129V62.0967C42.9032 61.4742 43.4097 60.9677 44.0322 60.9677H47.6131C47.9147 60.9677 48.1982 61.0851 48.4115 61.2984L49.6774 62.5643V67.7419H44.0322C43.4097 67.7419 42.9032 67.2354 42.9032 66.6129ZM67.7419 55.3225V64.3548C67.7419 66.2224 66.2224 67.7419 64.3548 67.7419H51.9355V63.2258H61.6292L63.5566 65.1532L65.1532 63.5566L63.2258 61.6292V51.9355H60.9677V60.9677H51.274L50.0081 59.7018C49.6943 59.3863 49.321 59.1361 48.9099 58.9658C48.4988 58.7955 48.0579 58.7084 47.613 58.7096H47.4193V51.9355C47.4193 50.7282 46.4661 49.742 45.2733 49.683C46.734 48.255 48.7177 47.4193 50.8064 47.4193H51.3709L55.3225 52.6881L59.2742 47.4193H59.8387C64.1964 47.4193 67.7419 50.9648 67.7419 55.3225ZM63.2258 34.8882C63.2258 37.6876 61.2333 40.118 58.4882 40.667L57.5806 40.8485V45.9139L55.3225 48.9246L53.0645 45.9139V40.8485L52.1569 40.667C49.4118 40.118 47.4193 37.6876 47.4193 34.8882V25.9677C47.4193 25.51 47.6935 25.116 48.0857 24.9389C48.881 26.2323 50.3089 27.0968 51.9355 27.0968C52.5173 27.0968 53.093 26.9839 53.629 26.7669C54.701 27.2008 55.9441 27.2008 57.0161 26.7669C57.5542 26.9847 58.1292 27.0966 58.7096 27.0968C60.3362 27.0968 61.7641 26.2323 62.5594 24.9389C62.9517 25.116 63.2258 25.51 63.2258 25.9677V34.8882ZM65.4838 33.8709V29.3548C66.7289 29.3548 67.7419 30.3678 67.7419 31.6129C67.7419 32.8579 66.7289 33.8709 65.4838 33.8709Z" fill="black"/>
<path d="M35.0001 15.8064C35.6237 15.8064 36.1292 15.3009 36.1292 14.6774C36.1292 14.0538 35.6237 13.5483 35.0001 13.5483C34.3766 13.5483 33.8711 14.0538 33.8711 14.6774C33.8711 15.3009 34.3766 15.8064 35.0001 15.8064Z" fill="black"/>
<path d="M39.5158 15.8064C40.1393 15.8064 40.6448 15.3009 40.6448 14.6774C40.6448 14.0538 40.1393 13.5483 39.5158 13.5483C38.8922 13.5483 38.3867 14.0538 38.3867 14.6774C38.3867 15.3009 38.8922 15.8064 39.5158 15.8064Z" fill="black"/>
<path d="M15.8066 4.51611H27.097V6.77418H15.8066V4.51611ZM15.8066 9.03224H22.5808V11.2903H15.8066V9.03224ZM24.8389 9.03224H27.097V11.2903H24.8389V9.03224Z" fill="black"/>
</svg>
